<?xml version="1.0" encoding="utf-8"?>
<!-- Generator: Adobe Illustrator 15.0.2, SVG Export Plug-In  -->
<!DOCTYPE svg PUBLIC "-//W3C//DTD SVG 1.1//EN" "http://www.w3.org/Graphics/SVG/1.1/DTD/svg11.dtd" [
	<!ENTITY ns_flows "http://ns.adobe.com/Flows/1.0/">
]>
<svg version="1.1"
	 xmlns="http://www.w3.org/2000/svg" xmlns:xlink="http://www.w3.org/1999/xlink" xmlns:a="http://ns.adobe.com/AdobeSVGViewerExtensions/3.0/"
	 x="0px" y="0px" width="638px" height="170px" viewBox="-16.338 -23.921 638 170" enable-background="new -16.338 -23.921 638 170"
	 xml:space="preserve">
<defs>
</defs>
<rect x="130.106" y="78.419" fill="none" width="483.04" height="43.818"/>
<text transform="matrix(1 0 0 1 130.104 94.125)" font-family="'HelveticaNeueLTStd-Bd'" font-size="22">Facultat de Matemàtiques i Estadística</text>
<g>
	<g>
		<path fill="#007AC2" d="M56.523,79.877h-2.051v4.275h2.109c1.367,0,1.922-1.072,1.895-2.207
			C58.443,80.84,58.002,79.877,56.523,79.877z M55.223,0C24.723,0,0,24.727,0,55.225c0,30.504,24.723,55.225,55.223,55.225
			c30.506,0,55.232-24.721,55.232-55.225C110.455,24.727,85.729,0,55.223,0z M55.445,15.592c4.355,0,7.883,3.539,7.883,7.885
			c0,4.348-3.527,7.883-7.883,7.883c-4.352,0-7.879-3.535-7.879-7.883C47.566,19.131,51.094,15.592,55.445,15.592z M55.445,34.277
			c4.355,0,7.883,3.525,7.883,7.881c0,4.346-3.527,7.881-7.883,7.881c-4.352,0-7.879-3.535-7.879-7.881
			C47.566,37.803,51.094,34.277,55.445,34.277z M36.289,15.592c4.352,0,7.887,3.539,7.887,7.885c0,4.348-3.535,7.883-7.887,7.883
			c-4.359,0-7.885-3.535-7.885-7.883C28.404,19.131,31.93,15.592,36.289,15.592z M36.289,34.277c4.352,0,7.887,3.525,7.887,7.881
			c0,4.346-3.535,7.881-7.887,7.881c-4.359,0-7.885-3.535-7.885-7.881C28.404,37.803,31.93,34.277,36.289,34.277z M36.289,53.451
			c4.352,0,7.887,3.527,7.887,7.887c0,4.352-3.535,7.875-7.887,7.875c-4.359,0-7.885-3.523-7.885-7.875
			C28.404,56.979,31.93,53.451,36.289,53.451z M45.58,86.982c0,1.936-0.064,4.326-2.605,6.117c-1.67,1.172-3.631,1.422-5.408,1.422
			s-3.732-0.25-5.404-1.422c-2.547-1.791-2.617-4.182-2.617-6.117v-11.09h5.313v11.066c0.014,1.049,0.111,1.875,0.93,2.545
			c0.566,0.469,1.049,0.623,1.785,0.625c0.734-0.002,1.211-0.156,1.771-0.625c0.809-0.67,0.91-1.496,0.938-2.545V75.893h5.299
			V86.982z M55.445,53.451c4.355,0,7.883,3.527,7.883,7.887c0,4.352-3.527,7.875-7.883,7.875c-4.352,0-7.879-3.523-7.879-7.875
			C47.566,56.979,51.094,53.451,55.445,53.451z M61.07,87.201c-1.016,0.719-2.168,0.994-5.117,0.994l-1.539-0.037v5.973h-4.623
			V75.893h7.639c3.723,0,6.023,2.246,6.023,6.281C63.453,84.33,62.611,86.133,61.07,87.201z M80.113,81.412
			c-1.807-1.518-2.521-1.406-3.945-1.406c-2.764,0-4.688,2.098-4.688,5.092c0,3.002,1.951,5.092,4.717,5.092
			c1.494,0,2.24-0.203,3.916-1.447v4.727c-1.74,0.848-2.73,1.096-4.41,1.096c-5.508,0-9.387-3.914-9.387-9.467
			c0-5.508,3.965-9.584,9.334-9.584c1.643,0,2.715,0.268,4.463,1.121V81.412z M74.166,69.213c-4.367,0-7.889-3.523-7.889-7.875
			c0-4.359,3.521-7.887,7.889-7.887c4.346,0,7.881,3.527,7.881,7.887C82.047,65.689,78.512,69.213,74.166,69.213z M74.166,50.039
			c-4.367,0-7.889-3.535-7.889-7.881c0-4.355,3.521-7.881,7.889-7.881c4.346,0,7.881,3.525,7.881,7.881
			C82.047,46.504,78.512,50.039,74.166,50.039z M74.166,31.359c-4.367,0-7.889-3.535-7.889-7.883c0-4.346,3.521-7.885,7.889-7.885
			c4.346,0,7.881,3.539,7.881,7.885C82.047,27.824,78.512,31.359,74.166,31.359z"/>
	</g>
</g>
<path fill="#007AC2" d="M140.438,25.268c0,2.188-0.813,3.043-2.898,3.043c-2.539,0-2.883-1.539-2.883-3.043v-8.93h-3.25v8.93
	c0,3.789,2.123,5.797,6.133,5.797c3.971,0,6.152-2.061,6.152-5.797v-8.93h-3.254V25.268z"/>
<polygon fill="#007AC2" points="156.744,25.832 150.854,16.361 150.836,16.338 147.625,16.338 147.625,30.723 150.68,30.723 
	150.68,21.244 156.551,30.695 156.57,30.723 159.799,30.723 159.799,16.338 156.744,16.338 "/>
<rect x="164.811" y="16.338" fill="#007AC2" width="3.252" height="14.385"/>
<polygon fill="#007AC2" points="176.188,30.723 179.805,30.723 184.557,16.416 184.584,16.338 181.225,16.338 178.027,26.303 
	174.869,16.338 171.512,16.338 176.172,30.684 "/>
<polygon fill="#007AC2" points="198.803,27.969 191.107,27.969 191.107,24.584 198.021,24.584 198.021,22.031 191.107,22.031 
	191.107,19.094 198.641,19.094 198.641,16.338 187.852,16.338 187.852,30.723 198.803,30.723 "/>
<path fill="#007AC2" d="M214.527,27.768c-0.008-0.178-0.016-0.338-0.027-0.488c-0.129-1.889-0.793-2.99-2.014-3.359
	c1.455-0.627,2.195-1.836,2.195-3.588c0-2.314-1.783-3.994-4.236-3.994h-7.75v14.385h3.25v-5.576h3.084
	c1.486,0,2.092,0.551,2.324,2.109c0.049,0.371,0.08,0.766,0.111,1.156c0.064,0.816,0.131,1.658,0.391,2.277l0.016,0.033h3.281
	l-0.061-0.088C214.629,29.975,214.57,28.701,214.527,27.768z M205.945,18.887h3.385c1.412,0,2.102,0.631,2.102,1.924
	c0,1.352-0.67,1.982-2.102,1.982h-3.385V18.887z"/>
<path fill="#007AC2" d="M225.631,22.246l-0.441-0.111c-3.307-0.852-3.904-1.002-3.904-2.023c0-1.154,1.133-1.564,2.107-1.564
	c1.799,0,2.676,0.672,2.76,2.109l0.006,0.053h3.145v-0.053c0-2.916-2.158-4.66-5.771-4.66c-2.678,0-5.393,1.504-5.393,4.375
	c0,2.746,2.219,3.564,4.297,4.113c0.307,0.08,0.617,0.156,0.92,0.234c1.758,0.428,3.279,0.799,3.279,2.07
	c0,1.6-2.088,1.719-2.723,1.719c-1.945,0-3.104-0.963-3.104-2.58v-0.057h-3.152v0.057c-0.014,1.383,0.418,2.529,1.295,3.414
	c1.096,1.107,2.814,1.723,4.838,1.723c3.697,0,5.992-1.777,5.992-4.639C229.781,23.268,226.766,22.525,225.631,22.246z"/>
<rect x="233.717" y="16.338" fill="#007AC2" width="3.252" height="14.385"/>
<polygon fill="#007AC2" points="244.174,30.723 247.428,30.723 247.428,19.094 251.705,19.094 251.705,16.338 239.898,16.338 
	239.898,19.094 244.174,19.094 "/>
<path fill="#007AC2" d="M265.73,30.723l-5.363-14.346l-0.016-0.039h-3.295l-5.43,14.307l-0.031,0.078h3.301l1.119-3.178h5.254
	l1.082,3.178H265.73z M260.416,25.09h-3.541l1.797-5.064L260.416,25.09z"/>
<polygon fill="#007AC2" points="277.586,16.338 265.781,16.338 265.781,19.094 270.059,19.094 270.059,30.723 273.309,30.723 
	273.309,19.094 277.586,19.094 "/>
<path fill="#007AC2" d="M291.051,25.605h3.246c3.68,0,4.994-2.393,4.994-4.635c0-2.24-1.314-4.633-4.994-4.633h-6.496v14.385h3.25
	V25.605z M291.051,18.887h2.387c1.336,0,2.701,0.248,2.701,2.084c0,1.834-1.365,2.084-2.701,2.084h-2.387V18.887z"/>
<path fill="#007AC2" d="M315.054,23.588c0-4.539-2.846-7.592-7.076-7.592c-4.232,0-7.072,3.053-7.072,7.592
	c0,4.4,2.908,7.477,7.072,7.477C312.144,31.064,315.054,27.988,315.054,23.588z M307.978,28.311c-2.816,0-3.822-2.439-3.822-4.723
	c0-1.135,0.277-4.838,3.822-4.838c3.547,0,3.82,3.703,3.82,4.838C311.798,25.871,310.796,28.311,307.978,28.311z"/>
<polygon fill="#007AC2" points="321.14,16.338 317.888,16.338 317.888,30.723 328.095,30.723 328.095,27.969 321.14,27.969 "/>
<rect x="330.908" y="16.338" fill="#007AC2" width="3.254" height="14.385"/>
<polygon fill="#007AC2" points="337.267,19.094 341.55,19.094 341.55,30.723 344.8,30.723 344.8,19.094 349.078,19.094 
	349.078,16.338 337.267,16.338 "/>
<polygon fill="#007AC2" points="355.224,24.584 362.138,24.584 362.138,22.031 355.224,22.031 355.224,19.094 362.755,19.094 
	362.755,16.338 351.97,16.338 351.97,30.723 362.919,30.723 362.919,27.969 355.224,27.969 "/>
<polygon fill="#007AC2" points="358.751,15.17 356.755,12.219 353.445,12.219 356.628,15.156 "/>
<path fill="#007AC2" d="M375.529,25.166c-0.258,1.996-1.418,3.145-3.184,3.145c-2.816,0-3.82-2.439-3.82-4.723
	c0-1.135,0.279-4.838,3.82-4.838c1.549,0,2.865,1.049,3.063,2.451l0.01,0.043h3.146l-0.002-0.061
	c-0.363-3.146-2.805-5.188-6.217-5.188c-4.23,0-7.07,3.053-7.07,7.592c0,4.4,2.906,7.477,7.07,7.477
	c3.529,0,6.012-2.314,6.334-5.889l0.008-0.064h-3.15L375.529,25.166z"/>
<polygon fill="#007AC2" points="390.613,25.832 384.716,16.361 384.703,16.338 381.494,16.338 381.494,30.723 384.548,30.723 
	384.548,21.25 390.419,30.695 390.437,30.723 393.662,30.723 393.662,16.338 390.613,16.338 "/>
<rect x="398.277" y="16.338" fill="#007AC2" width="3.254" height="14.385"/>
<path fill="#007AC2" d="M415.173,25.166c-0.256,1.996-1.416,3.145-3.184,3.145c-2.814,0-3.818-2.439-3.818-4.723
	c0-1.135,0.275-4.838,3.818-4.838c1.553,0,2.869,1.049,3.064,2.451l0.006,0.043h3.152l-0.008-0.061
	c-0.363-3.146-2.799-5.188-6.215-5.188c-4.229,0-7.07,3.053-7.07,7.592c0,4.4,2.908,7.477,7.07,7.477
	c3.527,0,6.014-2.314,6.338-5.889l0.002-0.064h-3.152L415.173,25.166z"/>
<path fill="#007AC2" d="M428.193,16.338h-3.295l-5.436,14.307l-0.027,0.078h3.301l1.119-3.178h5.256l1.08,3.178h3.379l-5.365-14.346
	L428.193,16.338z M428.251,25.09h-3.537l1.799-5.064L428.251,25.09z"/>
<path fill="#007AC2" d="M448.455,16.338h-6.213v14.385h6.213c4.092,0,6.533-2.721,6.533-7.273
	C454.988,18.996,452.546,16.338,448.455,16.338z M445.49,19.094h2.184c2.811,0,4.063,1.434,4.063,4.656
	c0,3.809-2.449,4.219-3.498,4.219h-2.748V19.094z"/>
<polygon fill="#007AC2" points="461.095,24.584 468.009,24.584 468.009,22.031 461.095,22.031 461.095,19.094 468.63,19.094 
	468.63,16.338 457.841,16.338 457.841,30.723 468.787,30.723 468.787,27.969 461.095,27.969 "/>
<path fill="#007AC2" d="M487.521,25.166c-0.258,1.996-1.412,3.145-3.184,3.145c-2.816,0-3.82-2.439-3.82-4.723
	c0-1.135,0.279-4.838,3.82-4.838c1.551,0,2.867,1.049,3.063,2.451l0.01,0.043h3.146l-0.002-0.061
	c-0.363-3.146-2.803-5.188-6.217-5.188c-4.23,0-7.07,3.053-7.07,7.592c0,4.4,2.906,7.477,7.07,7.477
	c3.523,0,6.012-2.314,6.336-5.889l0.006-0.064h-3.152L487.521,25.166z"/>
<path fill="#007AC2" d="M500.341,16.338h-3.295l-5.436,14.307l-0.027,0.078h3.301l1.119-3.178h5.256l1.08,3.178h3.379l-5.365-14.346
	L500.341,16.338z M500.4,25.09h-3.537l1.799-5.064L500.4,25.09z"/>
<polygon fill="#007AC2" points="517.576,16.338 505.769,16.338 505.769,19.094 510.048,19.094 510.048,30.723 513.298,30.723 
	513.298,19.094 517.576,19.094 "/>
<path fill="#007AC2" d="M526.064,16.338h-3.295l-5.436,14.307l-0.027,0.078h3.301l1.119-3.178h5.256l1.08,3.178h3.381l-5.367-14.346
	L526.064,16.338z M526.123,25.09h-3.537l1.799-5.064L526.123,25.09z"/>
<polygon fill="#007AC2" points="536.943,16.338 533.689,16.338 533.689,30.723 543.902,30.723 543.902,27.969 536.943,27.969 "/>
<path fill="#007AC2" d="M554.345,25.268c0,2.188-0.813,3.043-2.898,3.043c-2.539,0-2.883-1.539-2.883-3.043v-8.93h-3.254v8.93
	c0,3.789,2.121,5.797,6.137,5.797c3.965,0,6.152-2.061,6.152-5.797v-8.93h-3.254V25.268z"/>
<polygon fill="#007AC2" points="570.972,25.832 565.076,16.361 565.06,16.338 561.853,16.338 561.853,30.723 564.91,30.723 
	564.91,21.25 570.779,30.695 570.796,30.723 574.021,30.723 574.021,16.338 570.972,16.338 "/>
<polygon fill="#007AC2" points="589.988,16.338 586.355,16.338 583.074,21.92 579.763,16.338 576.095,16.338 581.394,25.109 
	581.394,30.723 584.646,30.723 584.638,25.221 "/>
<path fill="#007AC2" d="M597.964,16.377l-0.014-0.039h-3.295l-5.436,14.307l-0.025,0.078h3.301l1.115-3.178h5.258l1.08,3.178h3.379
	L597.964,16.377z M598.009,25.09h-3.539l1.801-5.064L598.009,25.09z"/>
<path fill="#007AC2" d="M140.357,47.416c0.635-0.273,1.135-0.678,1.484-1.211c0.371-0.555,0.561-1.23,0.561-1.996
	c0-0.727-0.168-1.352-0.5-1.854c-0.334-0.5-0.742-0.898-1.205-1.176c-0.215-0.135-0.482-0.242-0.787-0.309
	c-0.301-0.064-0.619-0.117-0.979-0.148c-0.35-0.033-0.703-0.059-1.055-0.064c-0.352-0.002-0.684-0.008-0.994-0.008h-5.234v14.395
	h6.959c0.705,0,1.342-0.115,1.895-0.352c0.541-0.24,1.008-0.553,1.373-0.934c0.371-0.387,0.652-0.836,0.846-1.328
	c0.186-0.498,0.281-1.016,0.281-1.543c0-0.889-0.24-1.656-0.711-2.275C141.836,48.02,141.186,47.617,140.357,47.416z M133.66,48.506
	h4.285c0.389,0,0.773,0.035,1.15,0.102c0.363,0.076,0.689,0.201,0.969,0.379c0.275,0.168,0.502,0.414,0.672,0.711
	c0.168,0.293,0.248,0.668,0.248,1.133c0,0.777-0.229,1.396-0.686,1.838c-0.467,0.443-1.113,0.664-1.934,0.664h-4.705V48.506z
	 M139.701,46.236c-0.463,0.365-1.236,0.553-2.293,0.553h-3.748v-4.426h3.748c0.398,0,0.789,0.025,1.16,0.07
	c0.357,0.047,0.678,0.15,0.949,0.303c0.268,0.154,0.479,0.369,0.635,0.656s0.234,0.68,0.234,1.172
	C140.387,45.318,140.164,45.861,139.701,46.236z"/>
<path fill="#007AC2" d="M150.066,40.65l-5.6,14.395h2.057l1.602-4.303h5.963l1.545,4.268l0.018,0.035h2.221l-5.629-14.395H150.066z
	 M153.445,49.033h-4.68l2.361-6.494L153.445,49.033z"/>
<path fill="#007AC2" d="M171.674,54.141c-0.104-0.313-0.176-0.645-0.232-0.982c-0.049-0.34-0.08-0.697-0.098-1.055
	c-0.01-0.355-0.029-0.711-0.059-1.063c-0.039-0.344-0.098-0.678-0.172-1.01c-0.072-0.318-0.189-0.617-0.346-0.881
	c-0.162-0.273-0.371-0.498-0.637-0.688c-0.234-0.17-0.533-0.299-0.887-0.383c0.809-0.254,1.406-0.697,1.785-1.328
	c0.393-0.658,0.598-1.434,0.598-2.307c0-1.172-0.396-2.107-1.172-2.779c-0.773-0.676-1.855-1.016-3.229-1.016h-6.777v14.395h2.018
	v-6.105h4.58c0.459,0,0.824,0.074,1.094,0.211c0.273,0.137,0.498,0.316,0.662,0.543c0.168,0.221,0.293,0.492,0.371,0.801
	c0.08,0.313,0.148,0.645,0.197,0.982c0.068,0.35,0.107,0.703,0.121,1.055l0.014,0.379c0.006,0.221,0.014,0.43,0.025,0.631
	c0.014,0.32,0.045,0.6,0.092,0.859c0.051,0.262,0.139,0.473,0.285,0.631l2.279,0.014l-0.072-0.092
	C171.92,54.719,171.771,54.445,171.674,54.141z M162.467,42.363h4.662c0.867,0,1.51,0.225,1.895,0.658
	c0.391,0.447,0.586,1.021,0.586,1.725c0,0.514-0.09,0.93-0.26,1.244c-0.174,0.313-0.41,0.566-0.703,0.76
	c-0.293,0.189-0.639,0.314-1.029,0.379c-0.391,0.068-0.813,0.104-1.25,0.104h-3.9V42.363z"/>
<path fill="#007AC2" d="M185.973,49.602c-0.039,0.584-0.158,1.131-0.359,1.623c-0.195,0.5-0.469,0.936-0.814,1.295
	c-0.346,0.357-0.76,0.639-1.244,0.85c-0.475,0.197-1.027,0.305-1.645,0.305c-0.842,0-1.572-0.164-2.176-0.479
	c-0.605-0.313-1.105-0.742-1.492-1.271c-0.385-0.531-0.676-1.164-0.859-1.879c-0.182-0.719-0.277-1.49-0.277-2.299
	c0-0.736,0.096-1.463,0.277-2.146c0.184-0.676,0.475-1.293,0.859-1.83c0.385-0.527,0.885-0.957,1.48-1.275
	c0.604-0.313,1.328-0.471,2.168-0.471c0.98,0,1.84,0.252,2.557,0.75c0.715,0.498,1.178,1.256,1.389,2.246l0.01,0.045h2.012
	L187.848,45c-0.107-0.768-0.34-1.451-0.686-2.037c-0.352-0.58-0.795-1.074-1.316-1.465c-0.525-0.385-1.131-0.684-1.803-0.887
	c-0.668-0.201-1.387-0.305-2.133-0.305c-1.102,0-2.09,0.207-2.932,0.602c-0.854,0.391-1.57,0.938-2.146,1.623
	c-0.566,0.682-1.004,1.492-1.297,2.404c-0.295,0.916-0.443,1.906-0.443,2.949c0,1.041,0.139,2.031,0.412,2.941
	c0.273,0.906,0.693,1.707,1.242,2.377c0.547,0.67,1.248,1.203,2.078,1.588c0.832,0.379,1.816,0.572,2.928,0.572
	c1.83,0,3.301-0.508,4.357-1.516c1.059-1.004,1.691-2.43,1.875-4.232l0.01-0.064h-2.018L185.973,49.602z"/>
<polygon fill="#007AC2" points="193.406,48.506 200.828,48.506 200.828,46.789 193.406,46.789 193.406,42.363 201.367,42.363 
	201.367,40.65 191.393,40.65 191.393,55.045 201.426,55.045 201.426,53.332 193.406,53.332 "/>
<polygon fill="#007AC2" points="207.285,40.65 205.273,40.65 205.273,55.045 214.85,55.045 214.85,53.332 207.285,53.332 "/>
<path fill="#007AC2" d="M227.598,42.609c-0.572-0.695-1.301-1.256-2.16-1.678c-0.854-0.412-1.867-0.625-3.002-0.625
	c-1.133,0-2.146,0.213-3.006,0.625c-0.859,0.422-1.584,0.982-2.158,1.678c-0.578,0.701-1.016,1.506-1.301,2.41
	c-0.291,0.898-0.436,1.848-0.436,2.826c0,0.977,0.145,1.932,0.436,2.83c0.285,0.9,0.723,1.713,1.301,2.41
	c0.568,0.695,1.297,1.25,2.158,1.666c0.857,0.41,1.867,0.611,3.006,0.611c1.135,0,2.148-0.201,3.002-0.611
	c0.859-0.416,1.588-0.971,2.16-1.666c0.574-0.693,1.012-1.51,1.303-2.41c0.285-0.898,0.432-1.854,0.432-2.83
	c0-0.979-0.146-1.928-0.432-2.826C228.609,44.115,228.172,43.307,227.598,42.609z M222.436,53.674c-0.857,0-1.602-0.172-2.213-0.504
	c-0.617-0.332-1.127-0.781-1.523-1.34c-0.393-0.547-0.686-1.174-0.871-1.869c-0.184-0.691-0.275-1.4-0.275-2.115
	c0-0.707,0.092-1.42,0.275-2.113c0.186-0.693,0.479-1.324,0.871-1.873c0.396-0.549,0.906-0.998,1.523-1.328
	c0.613-0.338,1.359-0.508,2.213-0.508c0.852,0,1.596,0.17,2.213,0.508c0.611,0.33,1.121,0.775,1.52,1.328
	c0.391,0.547,0.684,1.18,0.871,1.873c0.184,0.693,0.279,1.406,0.279,2.113c0,0.715-0.096,1.424-0.279,2.115
	c-0.188,0.697-0.48,1.328-0.871,1.869c-0.398,0.559-0.906,1.008-1.52,1.34C224.037,53.502,223.289,53.674,222.436,53.674z"/>
<polygon fill="#007AC2" points="242.516,52.154 235.047,40.65 232.938,40.65 232.938,55.045 234.85,55.045 234.85,43.652 
	242.266,55.045 244.434,55.045 244.434,40.65 242.516,40.65 "/>
<path fill="#007AC2" d="M252.84,40.65l-5.605,14.395h2.063l1.598-4.303h5.967l1.545,4.268l0.012,0.035h2.223l-5.625-14.395H252.84z
	 M256.219,49.033h-4.682l2.357-6.494L256.219,49.033z"/>
<polygon fill="#007AC2" points="261.309,43.424 265.586,43.424 265.586,55.053 268.842,55.053 268.842,43.424 273.113,43.424 
	273.113,40.67 261.309,40.67 "/>
<polygon fill="#007AC2" points="278.98,48.918 285.895,48.918 285.895,46.361 278.98,46.361 278.98,43.424 286.518,43.424 
	286.518,40.67 275.73,40.67 275.73,55.053 286.676,55.053 286.676,52.299 278.98,52.299 "/>
<path fill="#007AC2" d="M299.35,49.498c-0.26,1.998-1.414,3.145-3.184,3.145c-2.818,0-3.822-2.438-3.822-4.721
	c0-1.135,0.279-4.842,3.822-4.842c1.549,0,2.865,1.053,3.061,2.453l0.008,0.045h3.148l-0.004-0.061
	c-0.361-3.148-2.801-5.191-6.213-5.191c-4.232,0-7.07,3.053-7.07,7.596c0,4.4,2.904,7.475,7.07,7.475
	c3.521,0,6.01-2.316,6.334-5.887l0.006-0.064h-3.154L299.35,49.498z"/>
<polygon fill="#007AC2" points="313.712,46.145 308.048,46.145 308.048,40.67 304.792,40.67 304.792,55.053 308.048,55.053 
	308.048,48.898 313.712,48.898 313.712,55.053 316.96,55.053 316.96,40.67 313.712,40.67 "/>
<polygon fill="#007AC2" points="604.441,67.498 130.143,67.498 130.143,65.969 604.441,65.969 604.441,67.498 "/>
</svg>
